Nobile-Light.ufo
<glyph name="quotedbl" format="1">
  <advance width="414"/>
  <unicode hex="0022"/>
  <outline>
    <contour>
      <point x="84" y="1172" type="line"/>
      <point x="127" y="1172" type="line"/>
      <point x="148" y="1533" type="line"/>
      <point x="148" y="1620" type="line"/>
      <point x="56" y="1620" type="line"/>
      <point x="56" y="1530" type="line"/>
    </contour>
    <contour>
      <point x="304" y="1172" type="line"/>
      <point x="347" y="1172" type="line"/>
      <point x="368" y="1533" type="line"/>
      <point x="368" y="1620" type="line"/>
      <point x="276" y="1620" type="line"/>
      <point x="276" y="1530" type="line"/>
    </contour>
  </outline>
</glyph>
<glyph name="numbersign" format="1">
  <advance width="1380"/>
  <unicode hex="0023"/>
  <outline>
    <contour>
      <point x="236" y="0" type="line"/>
      <point x="298" y="0" type="line"/>
      <point x="618" y="1620" type="line"/>
      <point x="548" y="1620" type="line"/>
    </contour>
    <contour>
      <point x="132" y="554" type="line"/>
      <point x="1234" y="554" type="line"/>
      <point x="1234" y="603" type="line"/>
      <point x="132" y="603" type="line"/>
    </contour>
    <contour>
      <point x="162" y="954" type="line"/>
      <point x="1264" y="954" type="line"/>
      <point x="1264" y="1003" type="line"/>
      <point x="162" y="1003" type="line"/>
    </contour>
    <contour>
      <point x="746" y="0" type="line"/>
      <point x="808" y="0" type="line"/>
      <point x="1128" y="1620" type="line"/>
      <point x="1058" y="1620" type="line"/>
    </contour>
  </outline>
</glyph>
<glyph name="dollar" format="1">
  <advance width="948"/>
  <unicode hex="0024"/>
  <outline>
    <contour>
      <point x="451" y="-195" type="line"/>
      <point x="511" y="-195" type="line"/>
      <point x="511" y="1620" type="line"/>
      <point x="451" y="1620" type="line"/>
    </contour>
    <component base="s" yOffset="94"/>
  </outline>
</glyph>
<glyph name="percent" format="1">
  <advance width="1895"/>
  <unicode hex="0025"/>
  <outline>
    <contour>
      <point x="455" y="906" type="curve" smooth="yes"/>
      <point x="327" y="906"/>
      <point x="245" y="1028"/>
      <point x="245" y="1224" type="curve" smooth="yes"/>
      <point x="245" y="1430"/>
      <point x="327" y="1559"/>
      <point x="455" y="1559" type="curve" smooth="yes"/>
      <point x="583" y="1559"/>
      <point x="665" y="1430"/>
      <point x="665" y="1224" type="curve" smooth="yes"/>
      <point x="665" y="1028"/>
      <point x="583" y="906"/>
    </contour>
    <contour>
      <point x="455" y="821" type="curve" smooth="yes"/>
      <point x="644" y="821"/>
      <point x="763" y="977"/>
      <point x="763" y="1225" type="curve" smooth="yes"/>
      <point x="763" y="1479"/>
      <point x="644" y="1638"/>
      <point x="455" y="1638" type="curve" smooth="yes"/>
      <point x="266" y="1638"/>
      <point x="147" y="1479"/>
      <point x="147" y="1225" type="curve" smooth="yes"/>
      <point x="147" y="977"/>
      <point x="266" y="821"/>
    </contour>
    <contour>
      <point x="490" y="-43" type="line"/>
      <point x="1489" y="1612" type="line"/>
      <point x="1421" y="1646" type="line"/>
      <point x="420" y="-13" type="line"/>
    </contour>
    <contour>
      <point x="1455" y="67" type="curve" smooth="yes"/>
      <point x="1327" y="67"/>
      <point x="1245" y="189"/>
      <point x="1245" y="385" type="curve" smooth="yes"/>
      <point x="1245" y="591"/>
      <point x="1327" y="720"/>
      <point x="1455" y="720" type="curve" smooth="yes"/>
      <point x="1583" y="720"/>
      <point x="1665" y="591"/>
      <point x="1665" y="385" type="curve" smooth="yes"/>
      <point x="1665" y="189"/>
      <point x="1583" y="67"/>
    </contour>
    <contour>
      <point x="1455" y="-18" type="curve" smooth="yes"/>
      <point x="1644" y="-18"/>
      <point x="1763" y="138"/>
      <point x="1763" y="386" type="curve" smooth="yes"/>
      <point x="1763" y="640"/>
      <point x="1644" y="799"/>
      <point x="1455" y="799" type="curve" smooth="yes"/>
      <point x="1266" y="799"/>
      <point x="1147" y="640"/>
      <point x="1147" y="386" type="curve" smooth="yes"/>
      <point x="1147" y="138"/>
      <point x="1266" y="-18"/>
    </contour>
  </outline>
</glyph>
<glyph name="comma" format="1">
  <advance width="414"/>
  <unicode hex="002C"/>
  <outline>
    <contour>
      <point x="145" y="-234" type="line"/>
      <point x="279" y="-196"/>
      <point x="267" y="-79"/>
      <point x="267" y="29" type="curve" smooth="yes"/>
      <point x="267" y="218" type="line"/>
      <point x="155" y="218" type="line"/>
      <point x="155" y="30" type="line"/>
      <point x="221" y="30" type="line"/>
      <point x="221" y="-114"/>
      <point x="213" y="-168"/>
      <point x="130" y="-201" type="curve"/>
    </contour>
  </outline>
</glyph>
<glyph name="hyphen" format="1">
  <advance width="816"/>
  <unicode hex="002D"/>
  <unicode hex="2015"/>
  <outline>
    <contour>
      <point x="102" y="477" type="line"/>
      <point x="715" y="477" type="line"/>
      <point x="715" y="564" type="line"/>
      <point x="102" y="564" type="line"/>
    </contour>
    <contour>
      <point x="413" y="523" type="move" name="_mid"/>
    </contour>
  </outline>
</glyph>
<glyph name="one" format="1">
  <advance width="1270"/>
  <unicode hex="0031"/>
  <outline>
    <contour>
      <point x="713" y="0" type="line"/>
      <point x="811" y="0" type="line"/>
      <point x="811" y="1219" type="line"/>
      <point x="699" y="1219" type="line"/>
      <point x="448" y="1094" type="line"/>
      <point x="479" y="1028" type="line"/>
      <point x="713" y="1145" type="line"/>
    </contour>
  </outline>
</glyph>
<glyph name="two" format="1">
  <advance width="1270"/>
  <unicode hex="0032"/>
  <outline>
    <contour>
      <point x="258" y="0" type="line"/>
      <point x="1012" y="0" type="line"/>
      <point x="1012" y="71" type="line"/>
      <point x="376" y="71" type="line"/>
      <point x="713" y="382" type="line" smooth="yes"/>
      <point x="844" y="502"/>
      <point x="998" y="648"/>
      <point x="998" y="853" type="curve" smooth="yes"/>
      <point x="998" y="1083"/>
      <point x="844" y="1190"/>
      <point x="612" y="1190" type="curve" smooth="yes"/>
      <point x="447" y="1190"/>
      <point x="342" y="1130"/>
      <point x="264" y="1080" type="curve"/>
      <point x="293" y="1006" type="line"/>
      <point x="372" y="1057"/>
      <point x="479" y="1113"/>
      <point x="612" y="1113" type="curve" smooth="yes"/>
      <point x="758" y="1113"/>
      <point x="903" y="1061"/>
      <point x="903" y="853" type="curve" smooth="yes"/>
      <point x="903" y="673"/>
      <point x="793" y="572"/>
      <point x="657" y="444" type="curve" smooth="yes"/>
      <point x="258" y="67" type="line"/>
    </contour>
  </outline>
</glyph>
<glyph name="three" format="1">
  <advance width="1270"/>
  <unicode hex="0033"/>
  <outline>
    <contour>
      <point x="615" y="-213" type="curve" smooth="yes"/>
      <point x="840" y="-213"/>
      <point x="1030" y="-110"/>
      <point x="1037" y="141" type="curve" smooth="yes"/>
      <point x="1044" y="377"/>
      <point x="907" y="506"/>
      <point x="675" y="540" type="curve"/>
      <point x="820" y="540"/>
      <point x="989" y="607"/>
      <point x="989" y="853" type="curve" smooth="yes"/>
      <point x="989" y="1083"/>
      <point x="835" y="1190"/>
      <point x="603" y="1190" type="curve" smooth="yes"/>
      <point x="438" y="1190"/>
      <point x="333" y="1130"/>
      <point x="255" y="1080" type="curve"/>
      <point x="284" y="1006" type="line"/>
      <point x="363" y="1057"/>
      <point x="470" y="1113"/>
      <point x="603" y="1113" type="curve" smooth="yes"/>
      <point x="749" y="1113"/>
      <point x="895" y="1061"/>
      <point x="895" y="853" type="curve" smooth="yes"/>
      <point x="895" y="619"/>
      <point x="724" y="583"/>
      <point x="568" y="583" type="curve"/>
      <point x="568" y="502" type="line"/>
      <point x="827" y="462"/>
      <point x="954" y="384"/>
      <point x="945" y="142" type="curve" smooth="yes"/>
      <point x="938" y="-54"/>
      <point x="800" y="-136"/>
      <point x="615" y="-136" type="curve" smooth="yes"/>
      <point x="507" y="-136"/>
      <point x="390" y="-118"/>
      <point x="282" y="-69" type="curve"/>
      <point x="256" y="-141" type="line"/>
      <point x="371" y="-191"/>
      <point x="498" y="-213"/>
    </contour>
  </outline>
</glyph>
<glyph name="four" format="1">
  <advance width="1270"/>
  <unicode hex="0034"/>
  <outline>
    <contour>
      <point x="857" y="-283" type="line"/>
      <point x="953" y="-283" type="line"/>
      <point x="953" y="73" type="line"/>
      <point x="1155" y="73" type="line"/>
      <point x="1155" y="148" type="line"/>
      <point x="953" y="148" type="line"/>
      <point x="953" y="1179" type="line"/>
      <point x="852" y="1203" type="line"/>
      <point x="149" y="136" type="line"/>
      <point x="170" y="73" type="line"/>
      <point x="857" y="73" type="line"/>
    </contour>
    <contour>
      <point x="255" y="146" type="line"/>
      <point x="857" y="1076" type="line"/>
      <point x="857" y="146" type="line"/>
    </contour>
  </outline>
</glyph>
<glyph name="five" format="1">
  <advance width="1270"/>
  <unicode hex="0035"/>
  <outline>
    <contour>
      <point x="641" y="-217" type="curve" smooth="yes"/>
      <point x="904" y="-217"/>
      <point x="1098" y="-57"/>
      <point x="1098" y="226" type="curve" smooth="yes"/>
      <point x="1098" y="492"/>
      <point x="955" y="678"/>
      <point x="671" y="678" type="curve" smooth="yes"/>
      <point x="540" y="678"/>
      <point x="447" y="629"/>
      <point x="393" y="584" type="curve"/>
      <point x="393" y="1097" type="line"/>
      <point x="1008" y="1097" type="line"/>
      <point x="1008" y="1172" type="line"/>
      <point x="321" y="1172" type="line"/>
      <point x="321" y="534" type="line"/>
      <point x="370" y="484" type="line"/>
      <point x="429" y="542"/>
      <point x="522" y="595"/>
      <point x="671" y="595" type="curve" smooth="yes"/>
      <point x="914" y="595"/>
      <point x="1000" y="441"/>
      <point x="1000" y="226" type="curve" smooth="yes"/>
      <point x="1000" y="-6"/>
      <point x="871" y="-140"/>
      <point x="641" y="-140" type="curve" smooth="yes"/>
      <point x="487" y="-140"/>
      <point x="376" y="-88"/>
      <point x="297" y="-23" type="curve"/>
      <point x="268" y="-97" type="line"/>
      <point x="339" y="-152"/>
      <point x="466" y="-217"/>
    </contour>
  </outline>
</glyph>
<glyph name="six" format="1">
  <advance width="1270"/>
  <unicode hex="0036"/>
  <outline>
    <contour>
      <point x="670" y="-186" type="curve" smooth="yes"/>
      <point x="916" y="-186"/>
      <point x="1102" y="-16"/>
      <point x="1102" y="308" type="curve" smooth="yes"/>
      <point x="1102" y="617"/>
      <point x="895" y="752"/>
      <point x="688" y="752" type="curve" smooth="yes"/>
      <point x="528" y="752"/>
      <point x="367" y="673"/>
      <point x="299" y="531" type="curve"/>
      <point x="323" y="854"/>
      <point x="531" y="1119"/>
      <point x="860" y="1223" type="curve"/>
      <point x="839" y="1298" type="line"/>
      <point x="434" y="1198"/>
      <point x="196" y="831"/>
      <point x="196" y="408" type="curve" smooth="yes"/>
      <point x="196" y="73"/>
      <point x="330" y="-186"/>
    </contour>
    <contour>
      <point x="671" y="-106" type="curve" smooth="yes"/>
      <point x="352" y="-106"/>
      <point x="292" y="195"/>
      <point x="292" y="387" type="curve" smooth="yes"/>
      <point x="292" y="411"/>
      <point x="293" y="433"/>
      <point x="294" y="452" type="curve"/>
      <point x="384" y="591"/>
      <point x="538" y="671"/>
      <point x="681" y="671" type="curve" smooth="yes"/>
      <point x="853" y="671"/>
      <point x="1007" y="554"/>
      <point x="1007" y="284" type="curve" smooth="yes"/>
      <point x="1007" y="61"/>
      <point x="870" y="-106"/>
    </contour>
  </outline>
</glyph>
<glyph name="equal" format="1">
  <advance width="771"/>
  <unicode hex="003D"/>
  <outline>
    <contour>
      <point x="86" y="551" type="line"/>
      <point x="685" y="551" type="line"/>
      <point x="685" y="617" type="line"/>
      <point x="86" y="617" type="line"/>
    </contour>
    <contour>
      <point x="86" y="845" type="line"/>
      <point x="685" y="845" type="line"/>
      <point x="685" y="911" type="line"/>
      <point x="86" y="911" type="line"/>
    </contour>
  </outline>
</glyph>
<glyph name="question" format="1">
  <advance width="1090"/>
  <unicode hex="003F"/>
  <outline>
    <contour>
      <point x="333" y="320" type="line"/>
      <point x="409" y="320" type="line"/>
      <point x="409" y="715" type="line"/>
      <point x="636" y="808"/>
      <point x="970" y="929"/>
      <point x="970" y="1266" type="curve" smooth="yes"/>
      <point x="970" y="1533"/>
      <point x="745" y="1635"/>
      <point x="505" y="1635" type="curve" smooth="yes"/>
      <point x="362" y="1635"/>
      <point x="214" y="1599"/>
      <point x="105" y="1539" type="curve"/>
      <point x="145" y="1460" type="line"/>
      <point x="247" y="1514"/>
      <point x="384" y="1550"/>
      <point x="512" y="1550" type="curve" smooth="yes"/>
      <point x="788" y="1550"/>
      <point x="875" y="1404"/>
      <point x="875" y="1252" type="curve" smooth="yes"/>
      <point x="875" y="956"/>
      <point x="583" y="868"/>
      <point x="333" y="755" type="curve"/>
    </contour>
    <contour>
      <point x="378" y="-24" type="curve" smooth="yes"/>
      <point x="416" y="-24"/>
      <point x="440" y="1"/>
      <point x="440" y="41" type="curve" smooth="yes"/>
      <point x="440" y="77"/>
      <point x="416" y="98"/>
      <point x="378" y="98" type="curve" smooth="yes"/>
      <point x="337" y="98"/>
      <point x="311" y="77"/>
      <point x="311" y="41" type="curve" smooth="yes"/>
      <point x="311" y="1"/>
      <point x="337" y="-24"/>
    </contour>
  </outline>
</glyph>
<glyph name="A" format="1">
  <advance width="1356"/>
  <unicode hex="0041"/>
  <outline>
    <contour>
      <point x="49" y="0" type="line"/>
      <point x="146" y="0" type="line"/>
      <point x="288" y="401" type="line"/>
      <point x="1069" y="401" type="line"/>
      <point x="1211" y="0" type="line"/>
      <point x="1308" y="0" type="line"/>
      <point x="745" y="1620" type="line"/>
      <point x="603" y="1620" type="line"/>
    </contour>
    <contour>
      <point x="314" y="482" type="line"/>
      <point x="675" y="1549" type="line"/>
      <point x="1039" y="482" type="line"/>
    </contour>
    <contour>
      <point x="671" y="1620" type="move" name="top"/>
    </contour>
    <contour>
      <point x="1256" y="0" type="move" name="ogonek"/>
    </contour>
  </outline>
</glyph>
<glyph name="B" format="1">
  <advance width="1346"/>
  <unicode hex="0042"/>
  <outline>
    <contour>
      <point x="160" y="0" type="line"/>
      <point x="557" y="0" type="line" smooth="yes"/>
      <point x="929" y="0"/>
      <point x="1226" y="76"/>
      <point x="1226" y="460" type="curve" smooth="yes"/>
      <point x="1226" y="731"/>
      <point x="1103" y="860"/>
      <point x="851" y="896" type="curve"/>
      <point x="1043" y="935"/>
      <point x="1148" y="1029"/>
      <point x="1148" y="1252" type="curve" smooth="yes"/>
      <point x="1148" y="1616"/>
      <point x="814" y="1620"/>
      <point x="518" y="1620" type="curve" smooth="yes"/>
      <point x="160" y="1620" type="line"/>
    </contour>
    <contour>
      <point x="258" y="84" type="line"/>
      <point x="258" y="843" type="line"/>
      <point x="591" y="843" type="line" smooth="yes"/>
      <point x="857" y="843"/>
      <point x="1141" y="796"/>
      <point x="1141" y="467" type="curve" smooth="yes"/>
      <point x="1141" y="106"/>
      <point x="837" y="84"/>
      <point x="543" y="84" type="curve" smooth="yes"/>
    </contour>
    <contour>
      <point x="258" y="934" type="line"/>
      <point x="258" y="1535.29" type="line"/>
      <point x="528" y="1537" type="line" smooth="yes"/>
      <point x="796" y="1537"/>
      <point x="1060" y="1531"/>
      <point x="1060" y="1259" type="curve" smooth="yes"/>
      <point x="1060" y="967"/>
      <point x="835" y="934"/>
      <point x="592" y="934" type="curve" smooth="yes"/>
    </contour>
    <contour>
      <point x="660" y="1620" type="move" name="top"/>
    </contour>
  </outline>
</glyph>
<glyph name="D" format="1">
  <advance width="1435"/>
  <unicode hex="0044"/>
  <outline>
    <contour>
      <point x="258" y="84" type="line"/>
      <point x="258" y="1536" type="line"/>
      <point x="751" y="1536" type="line" smooth="yes"/>
      <point x="1135" y="1536"/>
      <point x="1231" y="1150"/>
      <point x="1231" y="811" type="curve" smooth="yes"/>
      <point x="1231" y="470"/>
      <point x="1148" y="84"/>
      <point x="751" y="84" type="curve" smooth="yes"/>
    </contour>
    <contour>
      <point x="160" y="0" type="line"/>
      <point x="730" y="0" type="line" smooth="yes"/>
      <point x="1212" y="0"/>
      <point x="1331" y="404"/>
      <point x="1331" y="811" type="curve" smooth="yes"/>
      <point x="1331" y="1215"/>
      <point x="1209" y="1620"/>
      <point x="730" y="1620" type="curve" smooth="yes"/>
      <point x="160" y="1620" type="line"/>
    </contour>
    <contour>
      <point x="671" y="1620" type="move" name="top"/>
    </contour>
    <contour>
      <point x="234" y="876" type="move" name="mid"/>
    </contour>
  </outline>
</glyph>
<glyph name="E" format="1">
  <advance width="1189"/>
  <unicode hex="0045"/>
  <outline>
    <contour>
      <point x="160" y="0" type="line"/>
      <point x="1065" y="0" type="line"/>
      <point x="1065" y="84" type="line"/>
      <point x="258" y="84" type="line"/>
      <point x="258" y="809" type="line"/>
      <point x="952" y="809" type="line"/>
      <point x="952" y="893" type="line"/>
      <point x="258" y="893" type="line"/>
      <point x="258" y="1537" type="line"/>
      <point x="1079" y="1537" type="line"/>
      <point x="1079" y="1621" type="line"/>
      <point x="160" y="1620" type="line"/>
    </contour>
    <contour>
      <point x="641" y="1620" type="move" name="top"/>
    </contour>
    <contour>
      <point x="806" y="0" type="move" name="ogonek"/>
    </contour>
    <contour>
      <point x="617" y="0" type="move" name="bot"/>
    </contour>
  </outline>
</glyph>
<glyph name="F" format="1">
  <advance width="1057"/>
  <unicode hex="0046"/>
  <outline>
    <contour>
      <point x="160" y="0" type="line"/>
      <point x="258" y="0" type="line"/>
      <point x="258" y="819" type="line"/>
      <point x="946" y="819" type="line"/>
      <point x="946" y="887" type="line"/>
      <point x="258" y="887" type="line"/>
      <point x="258" y="1545" type="line"/>
      <point x="994" y="1545" type="line"/>
      <point x="994" y="1620" type="line"/>
      <point x="160" y="1620" type="line"/>
    </contour>
  </outline>
</glyph>
<glyph name="G" format="1">
  <advance width="1454"/>
  <unicode hex="0047"/>
  <outline>
    <contour>
      <point x="782" y="-18" type="curve" smooth="yes"/>
      <point x="1027" y="-18"/>
      <point x="1156" y="77"/>
      <point x="1222" y="175" type="curve"/>
      <point x="1246" y="0" type="line"/>
      <point x="1298" y="0" type="line"/>
      <point x="1298" y="805" type="line"/>
      <point x="783" y="805" type="line"/>
      <point x="783" y="730" type="line"/>
      <point x="1208" y="730" type="line"/>
      <point x="1208" y="371" type="line" smooth="yes"/>
      <point x="1208" y="183"/>
      <point x="1038" y="66"/>
      <point x="782" y="66" type="curve" smooth="yes"/>
      <point x="306" y="66"/>
      <point x="230" y="447"/>
      <point x="230" y="805" type="curve" smooth="yes"/>
      <point x="230" y="1099"/>
      <point x="320" y="1553"/>
      <point x="781" y="1553" type="curve" smooth="yes"/>
      <point x="989" y="1553"/>
      <point x="1149" y="1474"/>
      <point x="1204" y="1436" type="curve"/>
      <point x="1240" y="1507" type="line"/>
      <point x="1191" y="1545"/>
      <point x="1011" y="1638"/>
      <point x="782" y="1638" type="curve" smooth="yes"/>
      <point x="288" y="1638"/>
      <point x="128" y="1203"/>
      <point x="128" y="805" type="curve" smooth="yes"/>
      <point x="128" y="357"/>
      <point x="271" y="-18"/>
    </contour>
    <contour>
      <point x="798" y="0" type="move" name="bot"/>
    </contour>
  </outline>
</glyph>
<glyph name="H" format="1">
  <advance width="1496"/>
  <unicode hex="0048"/>
  <outline>
    <contour>
      <point x="160" y="0" type="line"/>
      <point x="258" y="0" type="line"/>
      <point x="258" y="786" type="line"/>
      <point x="1238" y="786" type="line"/>
      <point x="1238" y="0" type="line"/>
      <point x="1336" y="0" type="line"/>
      <point x="1336" y="1620" type="line"/>
      <point x="1238" y="1620" type="line"/>
      <point x="1238" y="864" type="line"/>
      <point x="258" y="864" type="line"/>
      <point x="258" y="1620" type="line"/>
      <point x="160" y="1620" type="line"/>
    </contour>
    <contour>
      <point x="771" y="1620" type="move" name="top"/>
    </contour>
  </outline>
</glyph>
<glyph name="I" format="1">
  <advance width="750"/>
  <unicode hex="0049"/>
  <outline>
    <contour>
      <point x="110" y="0" type="line"/>
      <point x="640" y="0" type="line"/>
      <point x="640" y="60" type="line"/>
      <point x="428" y="60" type="line"/>
      <point x="428" y="1556" type="line"/>
      <point x="640" y="1556" type="line"/>
      <point x="640" y="1616" type="line"/>
      <point x="110" y="1616" type="line"/>
      <point x="110" y="1556" type="line"/>
      <point x="330" y="1556" type="line"/>
      <point x="330" y="60" type="line"/>
      <point x="110" y="60" type="line"/>
    </contour>
    <contour>
      <point x="383" y="1620" type="move" name="top"/>
    </contour>
    <contour>
      <point x="390" y="0" type="move" name="ogonek"/>
    </contour>
  </outline>
</glyph>
<glyph name="J" format="1">
  <advance width="671"/>
  <unicode hex="004A"/>
  <outline>
    <contour>
      <point x="94" y="-457" type="line"/>
      <point x="454" y="-417"/>
      <point x="495" y="-274"/>
      <point x="495" y="28" type="curve" smooth="yes"/>
      <point x="493" y="1620" type="line"/>
      <point x="395" y="1620" type="line"/>
      <point x="395" y="30" type="line" smooth="yes"/>
      <point x="395" y="-235"/>
      <point x="380" y="-322"/>
      <point x="72" y="-371" type="curve"/>
    </contour>
    <contour>
      <point x="451" y="1620" type="move" name="top"/>
    </contour>
  </outline>
</glyph>
<glyph name="K" format="1">
  <advance width="1251"/>
  <unicode hex="004B"/>
  <outline>
    <contour>
      <point x="160" y="0" type="line"/>
      <point x="258" y="0" type="line"/>
      <point x="258" y="786" type="line"/>
      <point x="317" y="786" type="line"/>
      <point x="1094" y="0" type="line"/>
      <point x="1215" y="0" type="line"/>
      <point x="406" y="827" type="line"/>
      <point x="1160" y="1620" type="line"/>
      <point x="1046" y="1620" type="line"/>
      <point x="312" y="855" type="line"/>
      <point x="258" y="855" type="line"/>
      <point x="258" y="1620" type="line"/>
      <point x="160" y="1620" type="line"/>
    </contour>
    <contour>
      <point x="601" y="1620" type="move" name="top"/>
    </contour>
    <contour>
      <point x="627" y="0" type="move" name="bot"/>
    </contour>
  </outline>
</glyph>
<glyph name="L" format="1">
  <advance width="1134"/>
  <unicode hex="004C"/>
  <outline>
    <contour>
      <point x="160" y="0" type="line"/>
      <point x="1073" y="0" type="line"/>
      <point x="1073" y="76" type="line"/>
      <point x="258" y="76" type="line"/>
      <point x="258" y="1620" type="line"/>
      <point x="160" y="1620" type="line"/>
    </contour>
    <contour>
      <point x="231" y="1620" type="move" name="top"/>
    </contour>
    <contour>
      <point x="211" y="869" type="move" name="mid"/>
    </contour>
    <contour>
      <point x="627" y="0" type="move" name="bot"/>
    </contour>
  </outline>
</glyph>
<glyph name="M" format="1">
  <advance width="1774"/>
  <unicode hex="004D"/>
  <outline>
    <contour>
      <point x="160" y="0" type="line"/>
      <point x="258" y="0" type="line"/>
      <point x="258" y="1488.7" type="line"/>
      <point x="860" y="149" type="line"/>
      <point x="931" y="149" type="line"/>
      <point x="1516" y="1493.59" type="line"/>
      <point x="1516" y="0" type="line"/>
      <point x="1614" y="0" type="line"/>
      <point x="1614" y="1620" type="line"/>
      <point x="1475" y="1620" type="line"/>
      <point x="893" y="290" type="line"/>
      <point x="296" y="1620" type="line"/>
      <point x="160" y="1620" type="line"/>
    </contour>
    <contour>
      <point x="871" y="1620" type="move" name="top"/>
    </contour>
  </outline>
</glyph>
<glyph name="P" format="1">
  <advance width="1290"/>
  <unicode hex="0050"/>
  <outline>
    <contour>
      <point x="160" y="0" type="line"/>
      <point x="258" y="0" type="line"/>
      <point x="258" y="790" type="line"/>
      <point x="666" y="790" type="line" smooth="yes"/>
      <point x="974" y="790"/>
      <point x="1225" y="852"/>
      <point x="1225" y="1217" type="curve" smooth="yes"/>
      <point x="1225" y="1599"/>
      <point x="912" y="1620"/>
      <point x="678" y="1620" type="curve" smooth="yes"/>
      <point x="160" y="1620" type="line"/>
    </contour>
    <contour>
      <point x="258" y="876" type="line"/>
      <point x="258" y="1536" type="line"/>
      <point x="680" y="1536" type="line" smooth="yes"/>
      <point x="931" y="1536"/>
      <point x="1122" y="1499"/>
      <point x="1122" y="1218" type="curve" smooth="yes"/>
      <point x="1122" y="912"/>
      <point x="948" y="876"/>
      <point x="666" y="876" type="curve" smooth="yes"/>
    </contour>
    <contour>
      <point x="651" y="1620" type="move" name="top"/>
    </contour>
  </outline>
</glyph>
<glyph name="Q" format="1">
  <advance width="1501"/>
  <unicode hex="0051"/>
  <outline>
    <contour>
      <point x="1101" y="-426" type="line"/>
      <point x="1163" y="-372" type="line"/>
      <point x="864" y="-9" type="line"/>
      <point x="1255" y="54"/>
      <point x="1373" y="447"/>
      <point x="1373" y="810" type="curve" smooth="yes"/>
      <point x="1373" y="1208"/>
      <point x="1233" y="1638"/>
      <point x="751" y="1638" type="curve" smooth="yes"/>
      <point x="268" y="1638"/>
      <point x="128" y="1208"/>
      <point x="128" y="810" type="curve" smooth="yes"/>
      <point x="128" y="414"/>
      <point x="268" y="-18"/>
      <point x="751" y="-18" type="curve"/>
    </contour>
    <contour>
      <point x="751" y="66" type="curve" smooth="yes"/>
      <point x="323" y="66"/>
      <point x="230" y="475"/>
      <point x="230" y="810" type="curve" smooth="yes"/>
      <point x="230" y="1147"/>
      <point x="323" y="1554"/>
      <point x="751" y="1554" type="curve" smooth="yes"/>
      <point x="1178" y="1554"/>
      <point x="1271" y="1147"/>
      <point x="1271" y="810" type="curve" smooth="yes"/>
      <point x="1271" y="475"/>
      <point x="1178" y="66"/>
    </contour>
    <contour>
      <point x="753" y="1620" type="move" name="top"/>
    </contour>
    <contour>
      <point x="840" y="0" type="move" name="ogonek"/>
    </contour>
  </outline>
</glyph>
<glyph name="R" format="1">
  <advance width="1367"/>
  <unicode hex="0052"/>
  <outline>
    <contour>
      <point x="160" y="-0.000102997" type="line"/>
      <point x="258" y="-0.000102997" type="line"/>
      <point x="258" y="764" type="line"/>
      <point x="693" y="764" type="line" smooth="yes"/>
      <point x="1036.65" y="765.717"/>
      <point x="1065.91" y="658.971"/>
      <point x="1098" y="474" type="curve" smooth="yes"/>
      <point x="1181" y="-0.000102997" type="line"/>
      <point x="1272" y="-0.000102997" type="line"/>
      <point x="1192" y="471" type="line" smooth="yes"/>
      <point x="1161.08" y="650.925"/>
      <point x="1138.55" y="750.332"/>
      <point x="964.716" y="793.872" type="curve"/>
      <point x="1132.45" y="840.904"/>
      <point x="1244" y="953.701"/>
      <point x="1244" y="1201" type="curve" smooth="yes"/>
      <point x="1244" y="1583"/>
      <point x="939" y="1620"/>
      <point x="705" y="1620" type="curve" smooth="yes"/>
      <point x="160" y="1620" type="line"/>
    </contour>
    <contour>
      <point x="258" y="847" type="line"/>
      <point x="258" y="1536" type="line"/>
      <point x="707" y="1536" type="line" smooth="yes"/>
      <point x="958" y="1536"/>
      <point x="1141" y="1483"/>
      <point x="1141" y="1202" type="curve" smooth="yes"/>
      <point x="1141" y="896"/>
      <point x="975" y="847"/>
      <point x="693" y="847" type="curve" smooth="yes"/>
    </contour>
    <contour>
      <point x="711" y="1620" type="move" name="top"/>
    </contour>
    <contour>
      <point x="617" y="0" type="move" name="bot"/>
    </contour>
  </outline>
</glyph>
<glyph name="S" format="1">
  <advance width="1218"/>
  <unicode hex="0053"/>
  <outline>
    <contour>
      <point x="579" y="-12" type="curve" smooth="yes"/>
      <point x="857" y="-12"/>
      <point x="1110" y="83"/>
      <point x="1110" y="417" type="curve" smooth="yes"/>
      <point x="1110" y="756"/>
      <point x="927" y="813"/>
      <point x="673" y="878" type="curve" smooth="yes"/>
      <point x="514" y="919" type="line" smooth="yes"/>
      <point x="285" y="978"/>
      <point x="200" y="1063"/>
      <point x="200" y="1244" type="curve" smooth="yes"/>
      <point x="200" y="1493"/>
      <point x="391" y="1560"/>
      <point x="590" y="1560" type="curve" smooth="yes"/>
      <point x="793" y="1560"/>
      <point x="921" y="1499"/>
      <point x="992" y="1434" type="curve"/>
      <point x="1037" y="1502" type="line"/>
      <point x="933" y="1592"/>
      <point x="780" y="1644"/>
      <point x="590" y="1644" type="curve" smooth="yes"/>
      <point x="320" y="1644"/>
      <point x="104" y="1543"/>
      <point x="104" y="1244" type="curve" smooth="yes"/>
      <point x="104" y="1002"/>
      <point x="233" y="888"/>
      <point x="488" y="828" type="curve" smooth="yes"/>
      <point x="646" y="791" type="line" smooth="yes"/>
      <point x="888" y="734"/>
      <point x="1020" y="675"/>
      <point x="1020" y="417" type="curve" smooth="yes"/>
      <point x="1020" y="146"/>
      <point x="822" y="72"/>
      <point x="579" y="72" type="curve" smooth="yes"/>
      <point x="388" y="72"/>
      <point x="226" y="140"/>
      <point x="136" y="201" type="curve"/>
      <point x="92" y="128" type="line"/>
      <point x="184" y="68"/>
      <point x="360" y="-12"/>
    </contour>
    <contour>
      <point x="597" y="1620" type="move" name="top"/>
    </contour>
    <contour>
      <point x="549" y="0" type="move" name="bot"/>
    </contour>
  </outline>
</glyph>
<glyph name="T" format="1">
  <advance width="1124"/>
  <unicode hex="0054"/>
  <outline>
    <contour>
      <point x="540" y="0" type="line"/>
      <point x="638" y="0" type="line"/>
      <point x="638" y="1544" type="line"/>
      <point x="1097" y="1544" type="line"/>
      <point x="1097" y="1620" type="line"/>
      <point x="28" y="1620" type="line"/>
      <point x="28" y="1544" type="line"/>
      <point x="540" y="1544" type="line"/>
    </contour>
    <contour>
      <point x="591" y="1620" type="move" name="top"/>
    </contour>
    <contour>
      <point x="588" y="0" type="move" name="bot"/>
    </contour>
  </outline>
</glyph>
<glyph name="U" format="1">
  <advance width="1422"/>
  <unicode hex="0055"/>
  <outline>
    <contour>
      <point x="711" y="-18" type="curve" smooth="yes"/>
      <point x="1158" y="-18"/>
      <point x="1302" y="161"/>
      <point x="1302" y="719" type="curve" smooth="yes"/>
      <point x="1302" y="1620" type="line"/>
      <point x="1204" y="1620" type="line"/>
      <point x="1204" y="715" type="line" smooth="yes"/>
      <point x="1204" y="224"/>
      <point x="1084" y="66"/>
      <point x="711" y="66" type="curve" smooth="yes"/>
      <point x="338" y="66"/>
      <point x="218" y="224"/>
      <point x="218" y="715" type="curve" smooth="yes"/>
      <point x="218" y="1620" type="line"/>
      <point x="120" y="1620" type="line"/>
      <point x="120" y="719" type="line" smooth="yes"/>
      <point x="120" y="161"/>
      <point x="264" y="-18"/>
    </contour>
    <contour>
      <point x="721" y="1620" type="move" name="top"/>
    </contour>
    <contour>
      <point x="796" y="0" type="move" name="ogonek"/>
    </contour>
  </outline>
</glyph>
<glyph name="V" format="1">
  <advance width="1289"/>
  <unicode hex="0056"/>
  <outline>
    <contour>
      <point x="569" y="0" type="line"/>
      <point x="705" y="0" type="line"/>
      <point x="1263" y="1620" type="line"/>
      <point x="1167" y="1620" type="line"/>
      <point x="633" y="80" type="line"/>
      <point x="122" y="1620" type="line"/>
      <point x="26" y="1620" type="line"/>
    </contour>
  </outline>
</glyph>
<glyph name="W" format="1">
  <advance width="2030"/>
  <unicode hex="0057"/>
  <outline>
    <contour>
      <point x="484" y="0" type="line"/>
      <point x="611" y="0" type="line"/>
      <point x="1009" y="1399" type="line"/>
      <point x="1406" y="0" type="line"/>
      <point x="1533" y="0" type="line"/>
      <point x="1990" y="1620" type="line"/>
      <point x="1893" y="1620" type="line"/>
      <point x="1468" y="88" type="line"/>
      <point x="1064" y="1508" type="line"/>
      <point x="953" y="1508" type="line"/>
      <point x="549" y="88" type="line"/>
      <point x="124" y="1620" type="line"/>
      <point x="27" y="1620" type="line"/>
    </contour>
    <contour>
      <point x="1011" y="1620" type="move" name="top"/>
    </contour>
  </outline>
</glyph>
<glyph name="X" format="1">
  <advance width="1305"/>
  <unicode hex="0058"/>
  <outline>
    <contour>
      <point x="82" y="0" type="line"/>
      <point x="182" y="0" type="line"/>
      <point x="652.542" y="732.827" type="line"/>
      <point x="1104" y="0" type="line"/>
      <point x="1208" y="0" type="line"/>
      <point x="707.452" y="808.462" type="line"/>
      <point x="1208" y="1616" type="line"/>
      <point x="1120" y="1616" type="line"/>
      <point x="659.124" y="886.52" type="line"/>
      <point x="205" y="1616" type="line"/>
      <point x="106" y="1616" type="line"/>
      <point x="604.951" y="810.08" type="line"/>
    </contour>
  </outline>
</glyph>
<glyph name="Y" format="1">
  <advance width="1264"/>
  <unicode hex="0059"/>
  <outline>
    <contour>
      <point x="580" y="0" type="line"/>
      <point x="678" y="0" type="line"/>
      <point x="678" y="708" type="line"/>
      <point x="1203" y="1616" type="line"/>
      <point x="1102" y="1616" type="line"/>
      <point x="633" y="805" type="line"/>
      <point x="166" y="1616" type="line"/>
      <point x="61" y="1616" type="line"/>
      <point x="580" y="708" type="line"/>
    </contour>
    <contour>
      <point x="641" y="1620" type="move" name="top"/>
    </contour>
  </outline>
</glyph>
<glyph name="Z" format="1">
  <advance width="1186"/>
  <unicode hex="005A"/>
  <outline>
    <contour>
      <point x="142" y="0" type="line"/>
      <point x="1100" y="0" type="line"/>
      <point x="1100" y="80" type="line"/>
      <point x="251" y="80" type="line"/>
      <point x="1098" y="1544" type="line"/>
      <point x="1098" y="1620" type="line"/>
      <point x="142" y="1620" type="line"/>
      <point x="142" y="1540" type="line"/>
      <point x="992" y="1540" type="line"/>
      <point x="142" y="79" type="line"/>
    </contour>
    <contour>
      <point x="641" y="1620" type="move" name="top"/>
    </contour>
  </outline>
</glyph>
<glyph name="bracketleft" format="1">
  <advance width="838"/>
  <unicode hex="005B"/>
  <outline>
    <contour>
      <point x="160" y="-190" type="line"/>
      <point x="778" y="-190" type="line"/>
      <point x="778" y="-111" type="line"/>
      <point x="258" y="-111" type="line"/>
      <point x="258" y="1620" type="line"/>
      <point x="778" y="1620" type="line"/>
      <point x="778" y="1700" type="line"/>
      <point x="160" y="1700" type="line"/>
    </contour>
  </outline>
</glyph>
<glyph name="asciicircum" format="1">
  <advance width="1024"/>
  <unicode hex="005E"/>
  <outline>
    <contour>
      <point x="86" y="700" type="line"/>
      <point x="177" y="700" type="line"/>
      <point x="512" y="1476" type="line"/>
      <point x="848" y="700" type="line"/>
      <point x="938" y="700" type="line"/>
      <point x="537" y="1620" type="line"/>
      <point x="486" y="1620" type="line"/>
    </contour>
  </outline>
</glyph>
<glyph name="grave" format="1">
  <advance width="438"/>
  <unicode hex="0060"/>
  <outline>
    <contour>
      <point x="409" y="1324" type="line"/>
      <point x="430" y="1358" type="line"/>
      <point x="42" y="1613" type="line"/>
      <point x="0" y="1540" type="line"/>
    </contour>
    <contour>
      <point x="334" y="1172" type="move" name="_top"/>
    </contour>
  </outline>
</glyph>
<glyph name="b" format="1">
  <advance width="1219"/>
  <unicode hex="0062"/>
  <outline>
    <contour>
      <point x="604" y="-18.0001" type="curve" smooth="yes"/>
      <point x="964" y="-18.0001"/>
      <point x="1101" y="295"/>
      <point x="1101" y="587" type="curve" smooth="yes"/>
      <point x="1101" y="895"/>
      <point x="953" y="1190"/>
      <point x="610" y="1190" type="curve" smooth="yes"/>
      <point x="463.497" y="1190"/>
      <point x="330.31" y="1119.92"/>
      <point x="244.468" y="1000.87" type="curve"/>
      <point x="244" y="1660" type="line"/>
      <point x="146" y="1638" type="line"/>
      <point x="146" y="2.92969e-07" type="line"/>
      <point x="231" y="2.92969e-07" type="line"/>
      <point x="239.712" y="156.808" type="line"/>
      <point x="323.965" y="44.0163"/>
      <point x="449.535" y="-18.0001"/>
    </contour>
    <contour>
      <point x="597" y="61.9999" type="curve" smooth="yes"/>
      <point x="452.64" y="61.9999"/>
      <point x="327.756" y="121.883"/>
      <point x="244.468" y="242.81" type="curve"/>
      <point x="244.537" y="903.9" type="line"/>
      <point x="338.286" y="1043.19"/>
      <point x="461.193" y="1110"/>
      <point x="612" y="1110" type="curve" smooth="yes"/>
      <point x="933" y="1110"/>
      <point x="1003" y="796"/>
      <point x="1003" y="579" type="curve" smooth="yes"/>
      <point x="1003" y="345"/>
      <point x="916" y="61.9999"/>
    </contour>
    <contour>
      <point x="631" y="1172" type="move" name="top"/>
    </contour>
  </outline>
</glyph>
<glyph name="d" format="1">
  <advance width="1269"/>
  <unicode hex="0064"/>
  <outline>
    <contour>
      <point x="627" y="-18" type="curve" smooth="yes"/>
      <point x="779" y="-18"/>
      <point x="903" y="41"/>
      <point x="988" y="150" type="curve"/>
      <point x="996" y="-0" type="line"/>
      <point x="1079" y="0" type="line"/>
      <point x="1079" y="1660" type="line"/>
      <point x="983" y="1638" type="line"/>
      <point x="983" y="1009" type="line"/>
      <point x="897" y="1122"/>
      <point x="765" y="1190"/>
      <point x="621" y="1190" type="curve" smooth="yes"/>
      <point x="278" y="1190"/>
      <point x="130" y="895"/>
      <point x="130" y="583" type="curve" smooth="yes"/>
      <point x="130" y="295"/>
      <point x="267" y="-18"/>
    </contour>
    <contour>
      <point x="634" y="62" type="curve" smooth="yes"/>
      <point x="315" y="62"/>
      <point x="224" y="345"/>
      <point x="224" y="583" type="curve" smooth="yes"/>
      <point x="224" y="796"/>
      <point x="298" y="1110"/>
      <point x="619" y="1110" type="curve" smooth="yes"/>
      <point x="768" y="1110"/>
      <point x="889" y="1043"/>
      <point x="982" y="907" type="curve"/>
      <point x="983" y="239" type="line"/>
      <point x="899" y="121"/>
      <point x="776" y="62"/>
    </contour>
    <contour>
      <point x="615" y="1172" type="move" name="top"/>
    </contour>
    <contour>
      <point x="1021" y="1379" type="move" name="mid"/>
    </contour>
    <contour>
      <point x="1051" y="1172" type="move" name="caron.alt"/>
    </contour>
  </outline>
</glyph>
<glyph name="f" format="1">
  <advance width="743"/>
  <unicode hex="0066"/>
  <outline>
    <contour>
      <point x="260" y="0" type="line"/>
      <point x="356" y="0" type="line"/>
      <point x="356" y="1106" type="line"/>
      <point x="688" y="1106" type="line"/>
      <point x="688" y="1172" type="line"/>
      <point x="356" y="1172" type="line"/>
      <point x="356" y="1224" type="line" smooth="yes"/>
      <point x="356" y="1425"/>
      <point x="379" y="1528"/>
      <point x="511" y="1539" type="curve" smooth="yes"/>
      <point x="582" y="1545"/>
      <point x="660" y="1525"/>
      <point x="710" y="1506" type="curve"/>
      <point x="731" y="1574" type="line"/>
      <point x="686" y="1594"/>
      <point x="594" y="1621"/>
      <point x="504" y="1614" type="curve" smooth="yes"/>
      <point x="330" y="1600"/>
      <point x="260" y="1501"/>
      <point x="260" y="1224" type="curve" smooth="yes"/>
      <point x="260" y="1172" type="line"/>
      <point x="62" y="1172" type="line"/>
      <point x="62" y="1106" type="line"/>
      <point x="260" y="1106" type="line"/>
    </contour>
    <contour>
      <point x="303" y="1620" type="move" name="top"/>
    </contour>
  </outline>
</glyph>
<glyph name="h" format="1">
  <advance width="1221"/>
  <unicode hex="0068"/>
  <outline>
    <contour>
      <point x="147" y="-8.55713e-06" type="line"/>
      <point x="243" y="-8.55713e-06" type="line"/>
      <point x="243" y="898.884" type="line"/>
      <point x="374.548" y="1029.56"/>
      <point x="530.189" y="1110"/>
      <point x="685" y="1110" type="curve" smooth="yes"/>
      <point x="948" y="1110"/>
      <point x="991" y="935"/>
      <point x="991" y="719" type="curve" smooth="yes"/>
      <point x="991" y="-8.55713e-06" type="line"/>
      <point x="1087" y="-8.55713e-06" type="line"/>
      <point x="1087" y="728" type="line" smooth="yes"/>
      <point x="1087" y="959"/>
      <point x="1032" y="1190"/>
      <point x="701" y="1190" type="curve" smooth="yes"/>
      <point x="523.673" y="1190"/>
      <point x="378.429" y="1119.42"/>
      <point x="243" y="987.588" type="curve"/>
      <point x="243" y="1604" type="line"/>
      <point x="147" y="1580" type="line"/>
    </contour>
    <contour>
      <point x="701" y="1172" type="move" name="top"/>
    </contour>
  </outline>
</glyph>
<glyph name="i" format="1">
  <advance width="458"/>
  <unicode hex="0069"/>
  <outline>
    <contour>
      <point x="188" y="0" type="line"/>
      <point x="284" y="0" type="line"/>
      <point x="284" y="1172" type="line"/>
      <point x="188" y="1172" type="line"/>
    </contour>
    <contour>
      <point x="238" y="1352" type="curve" smooth="yes"/>
      <point x="285" y="1352"/>
      <point x="308" y="1387"/>
      <point x="308" y="1423" type="curve" smooth="yes"/>
      <point x="308" y="1458"/>
      <point x="285" y="1493"/>
      <point x="238" y="1493" type="curve" smooth="yes"/>
      <point x="191" y="1493"/>
      <point x="168" y="1458"/>
      <point x="168" y="1423" type="curve" smooth="yes"/>
      <point x="168" y="1387"/>
      <point x="191" y="1352"/>
    </contour>
    <contour>
      <point x="217" y="0" type="move" name="ogonek"/>
    </contour>
  </outline>
</glyph>
<glyph name="k" format="1">
  <advance width="1076"/>
  <unicode hex="006B"/>
  <outline>
    <contour>
      <point x="190" y="0" type="line"/>
      <point x="286" y="0" type="line"/>
      <point x="286" y="545" type="line"/>
      <point x="366" y="613" type="line"/>
      <point x="950" y="0" type="line"/>
      <point x="1068" y="0" type="line"/>
      <point x="444" y="656" type="line"/>
      <point x="995" y="1172" type="line"/>
      <point x="878" y="1172" type="line"/>
      <point x="286" y="621" type="line"/>
      <point x="286" y="1660" type="line"/>
      <point x="190" y="1636" type="line"/>
    </contour>
    <contour>
      <point x="603" y="1172" type="move" name="top"/>
    </contour>
    <contour>
      <point x="619" y="0" type="move" name="bot"/>
    </contour>
  </outline>
</glyph>
<glyph name="l" format="1">
  <advance width="454"/>
  <unicode hex="006C"/>
  <outline>
    <contour>
      <point x="182" y="0" type="line"/>
      <point x="278" y="0" type="line"/>
      <point x="278" y="1604" type="line"/>
      <point x="182" y="1580" type="line"/>
    </contour>
    <contour>
      <point x="231" y="1620" type="move" name="top"/>
    </contour>
    <contour>
      <point x="68" y="812" type="move" name="mid"/>
    </contour>
  </outline>
</glyph>
<glyph name="m" format="1">
  <advance width="1988"/>
  <unicode hex="006D"/>
  <outline>
    <contour>
      <point x="146" y="0.000178369" type="line"/>
      <point x="242" y="0.000178369" type="line"/>
      <point x="241.313" y="900.672" type="line"/>
      <point x="370.73" y="1046.03"/>
      <point x="514.049" y="1110"/>
      <point x="669" y="1110" type="curve" smooth="yes"/>
      <point x="936" y="1110"/>
      <point x="949" y="932"/>
      <point x="949" y="716" type="curve" smooth="yes"/>
      <point x="949" y="0.000178369" type="line"/>
      <point x="1045" y="0.000178369" type="line"/>
      <point x="1045" y="725" type="line" smooth="yes"/>
      <point x="1045" y="780.807"/>
      <point x="1042.84" y="836.788"/>
      <point x="1034.9" y="889.603" type="curve"/>
      <point x="1177.73" y="1060.83"/>
      <point x="1319.83" y="1110"/>
      <point x="1474" y="1110" type="curve" smooth="yes"/>
      <point x="1741" y="1110"/>
      <point x="1754" y="932"/>
      <point x="1754" y="716" type="curve" smooth="yes"/>
      <point x="1754" y="0.000178369" type="line"/>
      <point x="1850" y="0.000178369" type="line"/>
      <point x="1850" y="725" type="line" smooth="yes"/>
      <point x="1850" y="956"/>
      <point x="1813" y="1190"/>
      <point x="1482" y="1190" type="curve" smooth="yes"/>
      <point x="1304.59" y="1190"/>
      <point x="1148.75" y="1132.2"/>
      <point x="1017.69" y="967.708" type="curve"/>
      <point x="978.779" y="1095.69"/>
      <point x="887.136" y="1190"/>
      <point x="677" y="1190" type="curve" smooth="yes"/>
      <point x="497.645" y="1190"/>
      <point x="358.496" y="1127.64"/>
      <point x="234.282" y="979.133" type="curve"/>
      <point x="217" y="1172" type="line"/>
      <point x="146" y="1172" type="line"/>
    </contour>
    <contour>
      <point x="1051" y="1172" type="move" name="top"/>
    </contour>
  </outline>
</glyph>
<glyph name="n" format="1">
  <advance width="1225"/>
  <unicode hex="006E"/>
  <outline>
    <contour>
      <point x="146" y="-5.83496e-06" type="line"/>
      <point x="242" y="-5.83496e-06" type="line"/>
      <point x="241.598" y="897.488" type="line"/>
      <point x="373.442" y="1028.99"/>
      <point x="529.638" y="1110"/>
      <point x="685" y="1110" type="curve" smooth="yes"/>
      <point x="948" y="1110"/>
      <point x="991" y="935"/>
      <point x="991" y="719" type="curve" smooth="yes"/>
      <point x="991" y="-5.83496e-06" type="line"/>
      <point x="1087" y="-5.83496e-06" type="line"/>
      <point x="1087" y="728" type="line" smooth="yes"/>
      <point x="1087" y="959"/>
      <point x="1032" y="1190"/>
      <point x="701" y="1190" type="curve" smooth="yes"/>
      <point x="519.867" y="1190"/>
      <point x="372.209" y="1116.35"/>
      <point x="234.293" y="979.014" type="curve"/>
      <point x="217" y="1172" type="line"/>
      <point x="146" y="1172" type="line"/>
    </contour>
    <contour>
      <point x="671" y="1172" type="move" name="top"/>
    </contour>
    <contour>
      <point x="627" y="0" type="move" name="bot"/>
    </contour>
  </outline>
</glyph>
<glyph name="o" format="1">
  <advance width="1264"/>
  <unicode hex="006F"/>
  <outline>
    <contour>
      <point x="632" y="62" type="curve" smooth="yes"/>
      <point x="328" y="62"/>
      <point x="216" y="315"/>
      <point x="216" y="582" type="curve" smooth="yes"/>
      <point x="216" y="804"/>
      <point x="303" y="1110"/>
      <point x="632" y="1110" type="curve" smooth="yes"/>
      <point x="965" y="1110"/>
      <point x="1048" y="804"/>
      <point x="1048" y="582" type="curve" smooth="yes"/>
      <point x="1048" y="315"/>
      <point x="940" y="62"/>
    </contour>
    <contour>
      <point x="632" y="-18" type="curve" smooth="yes"/>
      <point x="987" y="-18"/>
      <point x="1146" y="266"/>
      <point x="1146" y="582" type="curve" smooth="yes"/>
      <point x="1146" y="892"/>
      <point x="989" y="1190"/>
      <point x="632" y="1190" type="curve" smooth="yes"/>
      <point x="275" y="1190"/>
      <point x="118" y="892"/>
      <point x="118" y="582" type="curve" smooth="yes"/>
      <point x="118" y="266"/>
      <point x="277" y="-18"/>
    </contour>
    <contour>
      <point x="631" y="1172" type="move" name="top"/>
    </contour>
    <contour>
      <point x="696" y="0" type="move" name="ogonek"/>
    </contour>
  </outline>
</glyph>
<glyph name="p" format="1">
  <advance width="1255"/>
  <unicode hex="0070"/>
  <outline>
    <contour>
      <point x="180" y="-528" type="line"/>
      <point x="276" y="-506" type="line"/>
      <point x="276" y="155" type="line"/>
      <point x="360" y="42"/>
      <point x="486" y="-18"/>
      <point x="640" y="-18" type="curve" smooth="yes"/>
      <point x="1000" y="-18"/>
      <point x="1137" y="295"/>
      <point x="1137" y="583" type="curve" smooth="yes"/>
      <point x="1137" y="895"/>
      <point x="995" y="1190"/>
      <point x="652" y="1190" type="curve" smooth="yes"/>
      <point x="500" y="1190"/>
      <point x="358" y="1126"/>
      <point x="271" y="1004" type="curve"/>
      <point x="262" y="1172" type="line"/>
      <point x="180" y="1172" type="line"/>
    </contour>
    <contour>
      <point x="633" y="62" type="curve" smooth="yes"/>
      <point x="486" y="62"/>
      <point x="359" y="126"/>
      <point x="276" y="251" type="curve"/>
      <point x="276" y="911" type="line"/>
      <point x="372" y="1052"/>
      <point x="501" y="1110"/>
      <point x="654" y="1110" type="curve" smooth="yes"/>
      <point x="975" y="1110"/>
      <point x="1043" y="796"/>
      <point x="1043" y="583" type="curve" smooth="yes"/>
      <point x="1043" y="345"/>
      <point x="952" y="62"/>
    </contour>
    <contour>
      <point x="662" y="1172" type="move" name="top"/>
    </contour>
  </outline>
</glyph>
<glyph name="q" format="1">
  <advance width="1221"/>
  <unicode hex="0071"/>
  <outline>
    <contour>
      <point x="1075" y="-528" type="line"/>
      <point x="1075" y="1172" type="line"/>
      <point x="993" y="1172" type="line"/>
      <point x="983.679" y="1004.22" type="line"/>
      <point x="897.159" y="1125.89"/>
      <point x="754.983" y="1190"/>
      <point x="603" y="1190" type="curve" smooth="yes"/>
      <point x="260" y="1190"/>
      <point x="118" y="895"/>
      <point x="118" y="587" type="curve" smooth="yes"/>
      <point x="118" y="295"/>
      <point x="255" y="-18"/>
      <point x="615" y="-18" type="curve" smooth="yes"/>
      <point x="769.289" y="-18"/>
      <point x="894.749" y="42.4696"/>
      <point x="979" y="154.564" type="curve"/>
      <point x="979" y="-506" type="line"/>
    </contour>
    <contour>
      <point x="622" y="62" type="curve" smooth="yes"/>
      <point x="303" y="62"/>
      <point x="216" y="345"/>
      <point x="216" y="579" type="curve" smooth="yes"/>
      <point x="216" y="796"/>
      <point x="280" y="1110"/>
      <point x="601" y="1110" type="curve" smooth="yes"/>
      <point x="754.399" y="1110"/>
      <point x="883.489" y="1052.27"/>
      <point x="979" y="910.975" type="curve"/>
      <point x="979" y="251.325" type="line"/>
      <point x="895.745" y="125.517"/>
      <point x="768.977" y="62"/>
    </contour>
  </outline>
</glyph>
<glyph name="r" format="1">
  <advance width="705"/>
  <unicode hex="0072"/>
  <outline>
    <contour>
      <point x="148" y="0" type="line"/>
      <point x="244" y="0" type="line"/>
      <point x="240.852" y="928.13" type="line"/>
      <point x="370.254" y="1062.99"/>
      <point x="541.356" y="1099"/>
      <point x="653" y="1099" type="curve"/>
      <point x="653" y="1189" type="line"/>
      <point x="516.085" y="1189"/>
      <point x="350.343" y="1128.14"/>
      <point x="235.314" y="989.939" type="curve"/>
      <point x="219" y="1172" type="line"/>
      <point x="148" y="1172" type="line"/>
    </contour>
    <contour>
      <point x="401" y="1172" type="move" name="top"/>
    </contour>
    <contour>
      <point x="317" y="0" type="move" name="bot"/>
    </contour>
  </outline>
</glyph>
<glyph name="s" format="1">
  <advance width="948"/>
  <unicode hex="0073"/>
  <outline>
    <contour>
      <point x="474" y="-18" type="curve" smooth="yes"/>
      <point x="688" y="-18"/>
      <point x="858" y="71"/>
      <point x="867" y="304" type="curve" smooth="yes"/>
      <point x="876" y="533"/>
      <point x="732" y="588"/>
      <point x="594" y="634" type="curve" smooth="yes"/>
      <point x="440" y="685" type="line" smooth="yes"/>
      <point x="295" y="733"/>
      <point x="196" y="754"/>
      <point x="196" y="889" type="curve" smooth="yes"/>
      <point x="196" y="1060"/>
      <point x="336" y="1110"/>
      <point x="457" y="1110" type="curve" smooth="yes"/>
      <point x="584" y="1110"/>
      <point x="693" y="1076"/>
      <point x="775" y="1012" type="curve"/>
      <point x="814" y="1078" type="line"/>
      <point x="732" y="1148"/>
      <point x="591" y="1190"/>
      <point x="451" y="1190" type="curve" smooth="yes"/>
      <point x="295" y="1190"/>
      <point x="103" y="1120"/>
      <point x="103" y="888" type="curve" smooth="yes"/>
      <point x="103" y="693"/>
      <point x="267" y="645"/>
      <point x="414" y="600" type="curve" smooth="yes"/>
      <point x="555" y="557" type="line" smooth="yes"/>
      <point x="698" y="513"/>
      <point x="776" y="472"/>
      <point x="772" y="305" type="curve" smooth="yes"/>
      <point x="767" y="109"/>
      <point x="621" y="62"/>
      <point x="480" y="62" type="curve" smooth="yes"/>
      <point x="359" y="62"/>
      <point x="240" y="106"/>
      <point x="152" y="179" type="curve"/>
      <point x="113" y="110" type="line"/>
      <point x="178" y="43"/>
      <point x="332" y="-18"/>
    </contour>
    <contour>
      <point x="501" y="1172" type="move" name="top"/>
    </contour>
    <contour>
      <point x="498" y="0" type="move" name="bot"/>
    </contour>
  </outline>
</glyph>
<glyph name="t" format="1">
  <advance width="768"/>
  <unicode hex="0074"/>
  <outline>
    <contour>
      <point x="525" y="-12" type="curve" smooth="yes"/>
      <point x="585" y="-12"/>
      <point x="649" y="-2"/>
      <point x="714" y="18" type="curve"/>
      <point x="698" y="89" type="line"/>
      <point x="644" y="73"/>
      <point x="587" y="63"/>
      <point x="536" y="63" type="curve" smooth="yes"/>
      <point x="428" y="63"/>
      <point x="342" y="106"/>
      <point x="342" y="228" type="curve" smooth="yes"/>
      <point x="342" y="1103" type="line"/>
      <point x="682" y="1103" type="line"/>
      <point x="682" y="1172" type="line"/>
      <point x="342" y="1172" type="line"/>
      <point x="342" y="1562" type="line"/>
      <point x="259" y="1543" type="line"/>
      <point x="247" y="1172" type="line"/>
      <point x="58" y="1172" type="line"/>
      <point x="58" y="1103" type="line"/>
      <point x="246" y="1103" type="line"/>
      <point x="246" y="227" type="line" smooth="yes"/>
      <point x="246" y="59"/>
      <point x="369" y="-12"/>
    </contour>
    <contour>
      <point x="297" y="1472" type="move" name="top"/>
    </contour>
    <contour>
      <point x="484" y="0" type="move" name="bot"/>
    </contour>
  </outline>
</glyph>
<glyph name="x" format="1">
  <advance width="1001"/>
  <unicode hex="0078"/>
  <outline>
    <contour>
      <point x="46" y="0" type="line"/>
      <point x="149" y="0" type="line"/>
      <point x="494" y="528" type="line"/>
      <point x="854" y="0" type="line"/>
      <point x="955" y="0" type="line"/>
      <point x="543" y="588" type="line"/>
      <point x="932" y="1172" type="line"/>
      <point x="839" y="1172" type="line"/>
      <point x="494" y="656" type="line"/>
      <point x="144" y="1172" type="line"/>
      <point x="50" y="1172" type="line"/>
      <point x="443" y="591" type="line"/>
    </contour>
  </outline>
</glyph>
<glyph name="y" format="1">
  <advance width="1095"/>
  <unicode hex="0079"/>
  <outline>
    <contour>
      <point x="178" y="-406" type="line"/>
      <point x="463" y="-406"/>
      <point x="496" y="-230"/>
      <point x="568" y="-40" type="curve" smooth="yes"/>
      <point x="1027" y="1172" type="line"/>
      <point x="930" y="1172" type="line"/>
      <point x="544" y="136" type="line"/>
      <point x="153" y="1172" type="line"/>
      <point x="52" y="1172" type="line"/>
      <point x="498" y="27" type="line"/>
      <point x="413" y="-225"/>
      <point x="395" y="-330"/>
      <point x="158" y="-339" type="curve"/>
    </contour>
    <contour>
      <point x="561" y="1172" type="move" name="top"/>
    </contour>
  </outline>
</glyph>
<glyph name="yen" format="1">
  <advance width="1259"/>
  <unicode hex="00A5"/>
  <outline>
    <contour>
      <point x="286" y="402" type="line"/>
      <point x="963" y="402" type="line"/>
      <point x="963" y="470" type="line"/>
      <point x="286" y="470" type="line"/>
    </contour>
    <contour>
      <point x="286" y="612" type="line"/>
      <point x="963" y="612" type="line"/>
      <point x="963" y="680" type="line"/>
      <point x="286" y="680" type="line"/>
    </contour>
    <component base="Y"/>
  </outline>
</glyph>
<glyph name="brokenbar" format="1">
  <advance width="371"/>
  <unicode hex="00A6"/>
  <outline>
    <contour>
      <point x="144" y="-163" type="line"/>
      <point x="227" y="-163" type="line"/>
      <point x="227" y="497" type="line"/>
      <point x="144" y="497" type="line"/>
    </contour>
    <contour>
      <point x="144" y="960" type="line"/>
      <point x="227" y="960" type="line"/>
      <point x="227" y="1620" type="line"/>
      <point x="144" y="1620" type="line"/>
    </contour>
  </outline>
</glyph>
<glyph name="dieresis" format="1">
  <advance width="591"/>
  <unicode hex="00A8"/>
  <outline>
    <contour>
      <point x="110" y="1335" type="curve" smooth="yes"/>
      <point x="152" y="1335"/>
      <point x="171" y="1358"/>
      <point x="171" y="1408" type="curve" smooth="yes"/>
      <point x="171" y="1458"/>
      <point x="152" y="1481"/>
      <point x="110" y="1481" type="curve" smooth="yes"/>
      <point x="63" y="1481"/>
      <point x="41" y="1458"/>
      <point x="41" y="1408" type="curve" smooth="yes"/>
      <point x="41" y="1358"/>
      <point x="63" y="1335"/>
    </contour>
    <contour>
      <point x="503" y="1335" type="curve" smooth="yes"/>
      <point x="545" y="1335"/>
      <point x="564" y="1358"/>
      <point x="564" y="1408" type="curve" smooth="yes"/>
      <point x="564" y="1458"/>
      <point x="545" y="1481"/>
      <point x="503" y="1481" type="curve" smooth="yes"/>
      <point x="456" y="1481"/>
      <point x="435" y="1458"/>
      <point x="435" y="1408" type="curve" smooth="yes"/>
      <point x="435" y="1358"/>
      <point x="456" y="1335"/>
    </contour>
    <contour>
      <point x="310" y="1172" type="move" name="_top"/>
    </contour>
  </outline>
</glyph>
<glyph name="copyright" format="1">
  <advance width="1928"/>
  <unicode hex="00A9"/>
  <outline>
    <contour>
      <point x="972" y="288" type="curve" smooth="yes"/>
      <point x="1114" y="288"/>
      <point x="1246" y="335"/>
      <point x="1336" y="411" type="curve"/>
      <point x="1299" y="467" type="line"/>
      <point x="1215" y="399"/>
      <point x="1100" y="357"/>
      <point x="972" y="357" type="curve" smooth="yes"/>
      <point x="702" y="357"/>
      <point x="552" y="521"/>
      <point x="552" y="808" type="curve" smooth="yes"/>
      <point x="552" y="1080"/>
      <point x="698" y="1254"/>
      <point x="963" y="1260" type="curve" smooth="yes"/>
      <point x="1085" y="1263"/>
      <point x="1209" y="1223"/>
      <point x="1294" y="1154" type="curve"/>
      <point x="1338" y="1205" type="line"/>
      <point x="1248" y="1284"/>
      <point x="1107" y="1332"/>
      <point x="963" y="1329" type="curve" smooth="yes"/>
      <point x="656" y="1322"/>
      <point x="461" y="1121"/>
      <point x="461" y="808" type="curve" smooth="yes"/>
      <point x="461" y="489"/>
      <point x="653" y="288"/>
    </contour>
    <contour>
      <point x="964" y="59" type="curve" smooth="yes"/>
      <point x="500" y="59"/>
      <point x="209" y="343"/>
      <point x="209" y="796" type="curve" smooth="yes"/>
      <point x="209" y="1249"/>
      <point x="500" y="1533"/>
      <point x="964" y="1533" type="curve" smooth="yes"/>
      <point x="1428" y="1533"/>
      <point x="1719" y="1249"/>
      <point x="1719" y="796" type="curve" smooth="yes"/>
      <point x="1719" y="343"/>
      <point x="1428" y="59"/>
    </contour>
    <contour>
      <point x="964" y="-18" type="curve" smooth="yes"/>
      <point x="1484" y="-18"/>
      <point x="1810" y="296"/>
      <point x="1810" y="796" type="curve" smooth="yes"/>
      <point x="1810" y="1296"/>
      <point x="1484" y="1610"/>
      <point x="964" y="1610" type="curve" smooth="yes"/>
      <point x="444" y="1610"/>
      <point x="118" y="1296"/>
      <point x="118" y="796" type="curve" smooth="yes"/>
      <point x="118" y="296"/>
      <point x="444" y="-18"/>
    </contour>
  </outline>
</glyph>
<glyph name="guillemotleft" format="1">
  <advance width="953"/>
  <unicode hex="00AB"/>
  <outline>
    <contour>
      <point x="547" y="275" type="line"/>
      <point x="547" y="361" type="line"/>
      <point x="170" y="671" type="line"/>
      <point x="547" y="982" type="line"/>
      <point x="547" y="1058" type="line"/>
      <point x="104" y="704" type="line"/>
      <point x="104" y="637" type="line"/>
    </contour>
    <contour>
      <point x="887" y="275" type="line"/>
      <point x="887" y="361" type="line"/>
      <point x="510" y="671" type="line"/>
      <point x="887" y="982" type="line"/>
      <point x="887" y="1058" type="line"/>
      <point x="444" y="704" type="line"/>
      <point x="444" y="637" type="line"/>
    </contour>
  </outline>
</glyph>
<glyph name="logicalnot" format="1">
  <advance width="1624"/>
  <unicode hex="00AC"/>
  <outline>
    <contour>
      <point x="1265" y="475" type="line"/>
      <point x="1361" y="475" type="line"/>
      <point x="1361" y="1042" type="line"/>
      <point x="187" y="1042" type="line"/>
      <point x="187" y="958" type="line"/>
      <point x="1265" y="958" type="line"/>
    </contour>
  </outline>
</glyph>
<glyph name="registered" format="1">
  <advance width="1936"/>
  <unicode hex="00AE"/>
  <outline>
    <contour>
      <point x="629" y="293" type="line"/>
      <point x="719" y="293" type="line"/>
      <point x="719" y="768" type="line"/>
      <point x="1011" y="768" type="line"/>
      <point x="1199" y="761"/>
      <point x="1222" y="710"/>
      <point x="1242" y="599" type="curve" smooth="yes"/>
      <point x="1298" y="293" type="line"/>
      <point x="1384" y="293" type="line"/>
      <point x="1329" y="602" type="line" smooth="yes"/>
      <point x="1311" y="702"/>
      <point x="1293" y="782"/>
      <point x="1187" y="807" type="curve"/>
      <point x="1291" y="835"/>
      <point x="1363" y="912"/>
      <point x="1363" y="1054" type="curve" smooth="yes"/>
      <point x="1363" y="1303"/>
      <point x="1150" y="1328"/>
      <point x="998" y="1328" type="curve" smooth="yes"/>
      <point x="629" y="1328" type="line"/>
    </contour>
    <contour>
      <point x="719" y="847" type="line"/>
      <point x="719" y="1248" type="line"/>
      <point x="999" y="1248" type="line" smooth="yes"/>
      <point x="1166" y="1248"/>
      <point x="1272" y="1217"/>
      <point x="1272" y="1054" type="curve" smooth="yes"/>
      <point x="1272" y="876"/>
      <point x="1176" y="847"/>
      <point x="990" y="847" type="curve" smooth="yes"/>
    </contour>
    <contour>
      <point x="968" y="59" type="curve" smooth="yes"/>
      <point x="504" y="59"/>
      <point x="213" y="343"/>
      <point x="213" y="796" type="curve" smooth="yes"/>
      <point x="213" y="1249"/>
      <point x="504" y="1533"/>
      <point x="968" y="1533" type="curve" smooth="yes"/>
      <point x="1432" y="1533"/>
      <point x="1723" y="1249"/>
      <point x="1723" y="796" type="curve" smooth="yes"/>
      <point x="1723" y="343"/>
      <point x="1432" y="59"/>
    </contour>
    <contour>
      <point x="968" y="-18" type="curve" smooth="yes"/>
      <point x="1488" y="-18"/>
      <point x="1814" y="296"/>
      <point x="1814" y="796" type="curve" smooth="yes"/>
      <point x="1814" y="1296"/>
      <point x="1488" y="1610"/>
      <point x="968" y="1610" type="curve" smooth="yes"/>
      <point x="448" y="1610"/>
      <point x="122" y="1296"/>
      <point x="122" y="796" type="curve" smooth="yes"/>
      <point x="122" y="296"/>
      <point x="448" y="-18"/>
    </contour>
  </outline>
</glyph>
<glyph name="macron" format="1">
  <advance width="930"/>
  <unicode hex="00AF"/>
  <outline>
    <contour>
      <point x="182" y="1387" type="line"/>
      <point x="724" y="1387" type="line"/>
      <point x="724" y="1459" type="line"/>
      <point x="182" y="1459" type="line"/>
    </contour>
    <contour>
      <point x="464" y="1172" type="move" name="_top"/>
    </contour>
    <contour>
      <point x="456" y="1420" type="move" name="_mid"/>
    </contour>
  </outline>
</glyph>
<glyph name="acute" format="1">
  <advance width="447"/>
  <unicode hex="00B4"/>
  <outline>
    <contour>
      <point x="21" y="1324" type="line"/>
      <point x="430" y="1540" type="line"/>
      <point x="388" y="1613" type="line"/>
      <point x="0" y="1358" type="line"/>
    </contour>
    <contour>
      <point x="96" y="1172" type="move" name="_top"/>
    </contour>
  </outline>
</glyph>
<glyph name="paragraph" format="1">
  <advance width="1155"/>
  <unicode hex="00B6"/>
  <outline>
    <contour>
      <point x="562" y="-80" type="line"/>
      <point x="658" y="-80" type="line"/>
      <point x="658" y="1540" type="line"/>
      <point x="853" y="1540" type="line"/>
      <point x="853" y="-80" type="line"/>
      <point x="949" y="-80" type="line"/>
      <point x="949" y="1620" type="line"/>
      <point x="608" y="1620" type="line" smooth="yes"/>
      <point x="395" y="1620"/>
      <point x="111" y="1607"/>
      <point x="111" y="1342" type="curve" smooth="yes"/>
      <point x="111" y="1099"/>
      <point x="367" y="1050"/>
      <point x="562" y="1050" type="curve"/>
    </contour>
  </outline>
</glyph>
<glyph name="periodcentered" format="1">
  <advance width="621"/>
  <unicode hex="00B7"/>
  <outline>
    <contour>
      <point x="560" y="480" type="curve" smooth="yes"/>
      <point x="597" y="480"/>
      <point x="621" y="508"/>
      <point x="621" y="552" type="curve" smooth="yes"/>
      <point x="621" y="597"/>
      <point x="597" y="625"/>
      <point x="560" y="625" type="curve" smooth="yes"/>
      <point x="518" y="625"/>
      <point x="491" y="597"/>
      <point x="491" y="552" type="curve" smooth="yes"/>
      <point x="491" y="508"/>
      <point x="518" y="480"/>
    </contour>
    <contour>
      <point x="119" y="549" type="move" name="_mid"/>
    </contour>
  </outline>
</glyph>
<glyph name="AE" format="1">
  <advance width="1860"/>
  <unicode hex="00C6"/>
  <outline>
    <contour>
      <point x="-6" y="0" type="line"/>
      <point x="98" y="0" type="line"/>
      <point x="332" y="382" type="line"/>
      <point x="984" y="382" type="line"/>
      <point x="984" y="0" type="line"/>
      <point x="1765" y="0" type="line"/>
      <point x="1765" y="84" type="line"/>
      <point x="1082" y="84" type="line"/>
      <point x="1082" y="816" type="line"/>
      <point x="1660" y="816" type="line"/>
      <point x="1660" y="900" type="line"/>
      <point x="1082" y="900" type="line"/>
      <point x="1082" y="1536" type="line"/>
      <point x="1708" y="1536" type="line"/>
      <point x="1708" y="1620" type="line"/>
      <point x="957" y="1620" type="line"/>
    </contour>
    <contour>
      <point x="379" y="455" type="line"/>
      <point x="981" y="1491" type="line"/>
      <point x="981" y="455" type="line"/>
    </contour>
    <contour>
      <point x="1158" y="1620" type="move" name="top"/>
    </contour>
  </outline>
</glyph>
<glyph name="germandbls" format="1">
  <advance width="1162"/>
  <unicode hex="00DF"/>
  <outline>
    <contour>
      <point x="401" y="-93" type="line"/>
      <point x="698" y="-93"/>
      <point x="1122" y="-43"/>
      <point x="1122" y="416" type="curve" smooth="yes"/>
      <point x="1122" y="666"/>
      <point x="984" y="858"/>
      <point x="759" y="858" type="curve" smooth="yes"/>
      <point x="692.333" y="858"/>
      <point x="928" y="996.588"/>
      <point x="928" y="1186" type="curve" smooth="yes"/>
      <point x="928" y="1552"/>
      <point x="667" y="1579"/>
      <point x="481" y="1579" type="curve" smooth="yes"/>
      <point x="165" y="1579"/>
      <point x="94" y="1387"/>
      <point x="94" y="1081" type="curve" smooth="yes"/>
      <point x="96" y="-9" type="line"/>
      <point x="195" y="25" type="line"/>
      <point x="195" y="1069"/>
      <point x="194" y="1100"/>
      <point x="194" y="1132" type="curve" smooth="yes"/>
      <point x="194" y="1311"/>
      <point x="215" y="1491"/>
      <point x="481" y="1491" type="curve" smooth="yes"/>
      <point x="623" y="1491"/>
      <point x="837" y="1477"/>
      <point x="837" y="1235" type="curve" smooth="yes"/>
      <point x="837" y="944"/>
      <point x="650" y="900"/>
      <point x="443" y="900" type="curve" smooth="yes"/>
      <point x="404" y="900"/>
      <point x="364" y="903"/>
      <point x="337" y="904" type="curve"/>
      <point x="337" y="820" type="line"/>
      <point x="536.756" y="820"/>
      <point x="1039" y="853.966"/>
      <point x="1039" y="468" type="curve" smooth="yes"/>
      <point x="1039" y="-17.8824"/>
      <point x="668.667" y="-17.3333"/>
      <point x="402" y="-4" type="curve"/>
    </contour>
  </outline>
</glyph>
<glyph name="eth" format="1">
  <advance width="1060"/>
  <unicode hex="00F0"/>
  <outline>
    <contour>
      <point x="497" y="-18" type="curve" smooth="yes"/>
      <point x="794" y="-18"/>
      <point x="980" y="237"/>
      <point x="980" y="639" type="curve" smooth="yes"/>
      <point x="980" y="973"/>
      <point x="909" y="1182"/>
      <point x="734" y="1428" type="curve"/>
      <point x="1020" y="1509" type="line"/>
      <point x="978" y="1567" type="line"/>
      <point x="693" y="1487" type="line"/>
      <point x="581" y="1627"/>
      <point x="494" y="1681"/>
      <point x="393" y="1738" type="curve"/>
      <point x="344" y="1676" type="line"/>
      <point x="447" y="1620"/>
      <point x="540" y="1546"/>
      <point x="609" y="1461" type="curve"/>
      <point x="371" y="1395" type="line"/>
      <point x="413" y="1337" type="line"/>
      <point x="648" y="1403" type="line"/>
      <point x="744" y="1300"/>
      <point x="856" y="1090"/>
      <point x="875" y="928" type="curve"/>
      <point x="788" y="1084"/>
      <point x="700" y="1192"/>
      <point x="490" y="1192" type="curve" smooth="yes"/>
      <point x="195" y="1192"/>
      <point x="10" y="957"/>
      <point x="10" y="582" type="curve" smooth="yes"/>
      <point x="10" y="213"/>
      <point x="198" y="-18"/>
    </contour>
    <contour>
      <point x="497" y="55" type="curve" smooth="yes"/>
      <point x="254" y="55"/>
      <point x="102" y="258"/>
      <point x="102" y="582" type="curve" smooth="yes"/>
      <point x="102" y="911"/>
      <point x="252" y="1118"/>
      <point x="490" y="1118" type="curve" smooth="yes"/>
      <point x="733" y="1118"/>
      <point x="885" y="932"/>
      <point x="885" y="639" type="curve" smooth="yes"/>
      <point x="885" y="279"/>
      <point x="735" y="55"/>
    </contour>
  </outline>
</glyph>
<glyph name="Hbar" format="1">
  <advance width="1496"/>
  <unicode hex="0126"/>
  <outline>
    <contour>
      <point x="33" y="1309" type="line"/>
      <point x="1455" y="1309" type="line"/>
      <point x="1455" y="1368" type="line"/>
      <point x="33" y="1368" type="line"/>
    </contour>
    <component base="H"/>
  </outline>
</glyph>
<glyph name="hbar" format="1">
  <advance width="1221"/>
  <unicode hex="0127"/>
  <outline>
    <contour>
      <point x="1" y="1389" type="line"/>
      <point x="623" y="1389" type="line"/>
      <point x="623" y="1457" type="line"/>
      <point x="1" y="1457" type="line"/>
    </contour>
    <component base="h"/>
  </outline>
</glyph>
<glyph name="eng" format="1">
  <advance width="1225"/>
  <unicode hex="014B"/>
  <outline>
    <contour>
      <point x="716" y="-401" type="line"/>
      <point x="1031" y="-352"/>
      <point x="1087" y="-264"/>
      <point x="1087" y="81" type="curve" smooth="yes"/>
      <point x="1087" y="212" type="line"/>
      <point x="991" y="212" type="line"/>
      <point x="991" y="81" type="line" smooth="yes"/>
      <point x="991" y="-225"/>
      <point x="963" y="-281"/>
      <point x="691" y="-322" type="curve"/>
    </contour>
    <component base="n"/>
  </outline>
</glyph>
<glyph name="florin" format="1">
  <advance width="693"/>
  <unicode hex="0192"/>
  <outline>
    <contour>
      <point x="-188" y="-255" type="curve" smooth="yes"/>
      <point x="173" y="-255"/>
      <point x="167" y="-9"/>
      <point x="209" y="323" type="curve" smooth="yes"/>
      <point x="303" y="1050" type="line"/>
      <point x="686" y="1050" type="line"/>
      <point x="694" y="1126" type="line"/>
      <point x="310" y="1126" type="line"/>
      <point x="319.203" y="1214.96"/>
      <point x="217.529" y="1577"/>
      <point x="538" y="1577" type="curve" smooth="yes"/>
      <point x="599" y="1577"/>
      <point x="650" y="1526"/>
      <point x="685" y="1476" type="curve"/>
      <point x="788" y="1532" type="line"/>
      <point x="736" y="1596"/>
      <point x="636" y="1657"/>
      <point x="552" y="1657" type="curve" smooth="yes"/>
      <point x="234" y="1657"/>
      <point x="231" y="1362"/>
      <point x="206" y="1126" type="curve"/>
      <point x="9" y="1126" type="line"/>
      <point x="1" y="1050" type="line"/>
      <point x="198" y="1050" type="line"/>
      <point x="96" y="212" type="line"/>
      <point x="69" y="-36"/>
      <point x="71" y="-153"/>
      <point x="-114" y="-153" type="curve" smooth="yes"/>
      <point x="-146" y="-153"/>
      <point x="-198" y="-134"/>
      <point x="-275" y="-90" type="curve"/>
      <point x="-377" y="-145" type="line"/>
      <point x="-338" y="-201"/>
      <point x="-257" y="-255"/>
    </contour>
  </outline>
</glyph>
<glyph name="circumflex" format="1">
  <advance width="687"/>
  <unicode hex="02C6"/>
  <outline>
    <contour>
      <point x="68" y="1369" type="line"/>
      <point x="143" y="1369" type="line"/>
      <point x="344" y="1600" type="line"/>
      <point x="545" y="1369" type="line"/>
      <point x="620" y="1369" type="line"/>
      <point x="369" y="1674" type="line"/>
      <point x="318" y="1674" type="line"/>
    </contour>
    <contour>
      <point x="350" y="1172" type="move" name="_top"/>
    </contour>
  </outline>
</glyph>
<glyph name="breve" format="1">
  <advance width="520"/>
  <unicode hex="02D8"/>
  <outline>
    <contour>
      <point x="262" y="1320" type="curve" smooth="yes"/>
      <point x="403" y="1320"/>
      <point x="467" y="1383"/>
      <point x="467" y="1533" type="curve"/>
      <point x="394" y="1533" type="line"/>
      <point x="395" y="1437"/>
      <point x="352" y="1393"/>
      <point x="259" y="1393" type="curve" smooth="yes"/>
      <point x="159" y="1393"/>
      <point x="114" y="1437"/>
      <point x="115" y="1533" type="curve"/>
      <point x="42" y="1533" type="line"/>
      <point x="42" y="1383"/>
      <point x="111" y="1320"/>
    </contour>
    <contour>
      <point x="262" y="1172" type="move" name="_top"/>
    </contour>
  </outline>
</glyph>
<glyph name="dotaccent" format="1">
  <advance width="393"/>
  <unicode hex="02D9"/>
  <outline>
    <contour>
      <point x="197" y="1350" type="curve" smooth="yes"/>
      <point x="231" y="1350"/>
      <point x="252" y="1375"/>
      <point x="252" y="1416" type="curve" smooth="yes"/>
      <point x="252" y="1457"/>
      <point x="231" y="1482"/>
      <point x="197" y="1482" type="curve" smooth="yes"/>
      <point x="159" y="1482"/>
      <point x="135" y="1457"/>
      <point x="135" y="1416" type="curve" smooth="yes"/>
      <point x="135" y="1375"/>
      <point x="159" y="1350"/>
    </contour>
    <contour>
      <point x="207" y="1172" type="move" name="_top"/>
    </contour>
  </outline>
</glyph>
<glyph name="ring" format="1">
  <advance width="386"/>
  <unicode hex="02DA"/>
  <outline>
    <contour>
      <point x="193" y="1343" type="curve" smooth="yes"/>
      <point x="118" y="1343"/>
      <point x="70" y="1392"/>
      <point x="70" y="1469" type="curve" smooth="yes"/>
      <point x="70" y="1546"/>
      <point x="118" y="1595"/>
      <point x="193" y="1595" type="curve" smooth="yes"/>
      <point x="268" y="1595"/>
      <point x="316" y="1546"/>
      <point x="316" y="1469" type="curve" smooth="yes"/>
      <point x="316" y="1392"/>
      <point x="268" y="1343"/>
    </contour>
    <contour>
      <point x="193" y="1292" type="curve" smooth="yes"/>
      <point x="304" y="1292"/>
      <point x="374" y="1360"/>
      <point x="374" y="1469" type="curve" smooth="yes"/>
      <point x="374" y="1578"/>
      <point x="304" y="1646"/>
      <point x="193" y="1646" type="curve" smooth="yes"/>
      <point x="82" y="1646"/>
      <point x="12" y="1578"/>
      <point x="12" y="1469" type="curve" smooth="yes"/>
      <point x="12" y="1360"/>
      <point x="82" y="1292"/>
    </contour>
    <contour>
      <point x="194" y="1172" type="move" name="_top"/>
    </contour>
    <contour>
      <point x="194" y="1527" type="move" name="top"/>
    </contour>
  </outline>
</glyph>
<glyph name="tilde" format="1">
  <advance width="837"/>
  <unicode hex="02DC"/>
  <outline>
    <contour>
      <point x="99" y="1414" type="curve"/>
      <point x="149" y="1414" type="line"/>
      <point x="149" y="1580"/>
      <point x="302" y="1496"/>
      <point x="501" y="1433" type="curve" smooth="yes"/>
      <point x="629" y="1392"/>
      <point x="695" y="1434"/>
      <point x="695" y="1592" type="curve"/>
      <point x="645" y="1592" type="line"/>
      <point x="645" y="1426"/>
      <point x="492" y="1510"/>
      <point x="293" y="1573" type="curve" smooth="yes"/>
      <point x="165" y="1614"/>
      <point x="99" y="1572"/>
    </contour>
    <contour>
      <point x="415" y="1172" type="move" name="_top"/>
    </contour>
  </outline>
</glyph>
<glyph name="uni0307" format="1">
  <advance width="393"/>
  <unicode hex="0307"/>
  <outline>
    <contour>
      <point x="197" y="1450" type="curve" smooth="yes"/>
      <point x="234" y="1450"/>
      <point x="258" y="1478"/>
      <point x="258" y="1523" type="curve" smooth="yes"/>
      <point x="258" y="1568"/>
      <point x="234" y="1596"/>
      <point x="197" y="1596" type="curve" smooth="yes"/>
      <point x="155" y="1596"/>
      <point x="129" y="1568"/>
      <point x="129" y="1523" type="curve" smooth="yes"/>
      <point x="129" y="1478"/>
      <point x="155" y="1450"/>
    </contour>
    <contour>
      <point x="198" y="1172" type="move" name="_top"/>
    </contour>
  </outline>
</glyph>
<glyph name="uni030F" format="1">
  <advance width="800"/>
  <unicode hex="030F"/>
  <outline>
    <contour>
      <point x="369" y="1305" type="line"/>
      <point x="399" y="1332" type="line"/>
      <point x="99" y="1676" type="line"/>
      <point x="37" y="1617" type="line"/>
    </contour>
    <contour>
      <point x="709" y="1305" type="line"/>
      <point x="739" y="1332" type="line"/>
      <point x="439" y="1676" type="line"/>
      <point x="377" y="1617" type="line"/>
    </contour>
    <contour>
      <point x="570" y="1172" type="move" name="_top"/>
    </contour>
  </outline>
</glyph>
<glyph name="uni0311" format="1">
  <advance width="520"/>
  <unicode hex="0311"/>
  <outline>
    <contour>
      <point x="42" y="1320" type="curve"/>
      <point x="115" y="1320" type="line"/>
      <point x="114" y="1416"/>
      <point x="159" y="1460"/>
      <point x="259" y="1460" type="curve" smooth="yes"/>
      <point x="352" y="1460"/>
      <point x="395" y="1416"/>
      <point x="394" y="1320" type="curve"/>
      <point x="467" y="1320" type="line"/>
      <point x="467" y="1470"/>
      <point x="403" y="1533"/>
      <point x="262" y="1533" type="curve" smooth="yes"/>
      <point x="111" y="1533"/>
      <point x="42" y="1470"/>
    </contour>
    <contour>
      <point x="262" y="1172" type="move" name="_top"/>
    </contour>
  </outline>
</glyph>
<glyph name="Sigma" format="1">
  <advance width="1328"/>
  <unicode hex="03A3"/>
  <outline>
    <contour>
      <point x="112" y="0" type="line"/>
      <point x="1202" y="0" type="line"/>
      <point x="1202" y="79" type="line"/>
      <point x="221" y="79" type="line"/>
      <point x="1002" y="793" type="line"/>
      <point x="1002" y="844" type="line"/>
      <point x="216" y="1536" type="line"/>
      <point x="1191" y="1536" type="line"/>
      <point x="1191" y="1620" type="line"/>
      <point x="112" y="1620" type="line"/>
      <point x="112" y="1525" type="line"/>
      <point x="901" y="816" type="line"/>
      <point x="112" y="87" type="line"/>
    </contour>
  </outline>
</glyph>
<glyph name="uni03BC" format="1">
  <advance width="1160"/>
  <unicode hex="03BC"/>
  <outline>
    <contour>
      <point x="138" y="-288" type="line"/>
      <point x="238" y="-270" type="line"/>
      <point x="236" y="675" type="line"/>
      <point x="138" y="675" type="line"/>
    </contour>
    <component base="u"/>
  </outline>
</glyph>
<glyph name="quotedblright" format="1">
  <advance width="831"/>
  <unicode hex="201D"/>
  <outline>
    <contour>
      <point x="214" y="1168" type="line"/>
      <point x="348" y="1206"/>
      <point x="336" y="1323"/>
      <point x="336" y="1431" type="curve" smooth="yes"/>
      <point x="336" y="1620" type="line"/>
      <point x="224" y="1620" type="line"/>
      <point x="224" y="1432" type="line"/>
      <point x="290" y="1432" type="line"/>
      <point x="290" y="1288"/>
      <point x="282" y="1234"/>
      <point x="199" y="1201" type="curve"/>
    </contour>
    <contour>
      <point x="475" y="1168" type="line"/>
      <point x="609" y="1206"/>
      <point x="597" y="1323"/>
      <point x="597" y="1431" type="curve" smooth="yes"/>
      <point x="597" y="1620" type="line"/>
      <point x="485" y="1620" type="line"/>
      <point x="485" y="1432" type="line"/>
      <point x="551" y="1432" type="line"/>
      <point x="551" y="1288"/>
      <point x="543" y="1234"/>
      <point x="460" y="1201" type="curve"/>
    </contour>
  </outline>
</glyph>
<glyph name="guilsinglleft" format="1">
  <advance width="655"/>
  <unicode hex="2039"/>
  <outline>
    <contour>
      <point x="587" y="275" type="line"/>
      <point x="587" y="361" type="line"/>
      <point x="170" y="671" type="line"/>
      <point x="587" y="982" type="line"/>
      <point x="587" y="1058" type="line"/>
      <point x="104" y="704" type="line"/>
      <point x="104" y="637" type="line"/>
    </contour>
  </outline>
</glyph>
<glyph name="guilsinglright" format="1">
  <advance width="655"/>
  <unicode hex="203A"/>
  <outline>
    <contour>
      <point x="104" y="275" type="line"/>
      <point x="587" y="637" type="line"/>
      <point x="587" y="704" type="line"/>
      <point x="104" y="1058" type="line"/>
      <point x="104" y="982" type="line"/>
      <point x="521" y="671" type="line"/>
      <point x="104" y="361" type="line"/>
    </contour>
  </outline>
</glyph>
<glyph name="uni2074" format="1">
  <advance width="1270"/>
  <unicode hex="2074"/>
  <outline>
    <contour>
      <point x="775" y="615" type="line"/>
      <point x="854" y="615" type="line"/>
      <point x="854" y="882" type="line"/>
      <point x="1019" y="882" type="line"/>
      <point x="1019" y="952" type="line"/>
      <point x="854" y="952" type="line"/>
      <point x="854" y="1779" type="line"/>
      <point x="771" y="1799" type="line"/>
      <point x="194" y="943" type="line"/>
      <point x="211" y="882" type="line"/>
      <point x="775" y="882" type="line"/>
    </contour>
    <contour>
      <point x="288" y="951" type="line"/>
      <point x="775" y="1679" type="line"/>
      <point x="775" y="951" type="line"/>
    </contour>
  </outline>
</glyph>
<glyph name="afii61289" format="1">
  <advance width="886"/>
  <unicode hex="2113"/>
  <outline>
    <contour>
      <point x="593" y="-12" type="curve" smooth="yes"/>
      <point x="653" y="-12"/>
      <point x="717" y="-2"/>
      <point x="782" y="18" type="curve"/>
      <point x="766" y="89" type="line"/>
      <point x="712" y="73"/>
      <point x="655" y="63"/>
      <point x="604" y="63" type="curve" smooth="yes"/>
      <point x="496" y="63"/>
      <point x="410" y="106"/>
      <point x="410" y="228" type="curve" smooth="yes"/>
      <point x="410" y="1061" type="line"/>
      <point x="595" y="1237" type="line" smooth="yes"/>
      <point x="666" y="1304"/>
      <point x="702" y="1348"/>
      <point x="702" y="1413" type="curve" smooth="yes"/>
      <point x="702" y="1516"/>
      <point x="615" y="1581"/>
      <point x="516" y="1581" type="curve" smooth="yes"/>
      <point x="426" y="1581"/>
      <point x="316" y="1524"/>
      <point x="316" y="1358" type="curve" smooth="yes"/>
      <point x="315" y="1075" type="line"/>
      <point x="76" y="845" type="line"/>
      <point x="76" y="751" type="line"/>
      <point x="314" y="981" type="line"/>
      <point x="314" y="227" type="line" smooth="yes"/>
      <point x="314" y="59"/>
      <point x="437" y="-12"/>
    </contour>
    <contour>
      <point x="410" y="1155" type="line"/>
      <point x="410" y="1362" type="line" smooth="yes"/>
      <point x="410" y="1455"/>
      <point x="463" y="1494"/>
      <point x="515" y="1494" type="curve" smooth="yes"/>
      <point x="564" y="1494"/>
      <point x="610" y="1461"/>
      <point x="610" y="1401" type="curve" smooth="yes"/>
      <point x="610" y="1362"/>
      <point x="585" y="1325"/>
      <point x="545" y="1286" type="curve" smooth="yes"/>
    </contour>
  </outline>
</glyph>
<glyph name="trademark" format="1">
  <advance width="1443"/>
  <unicode hex="2122"/>
  <outline>
    <contour>
      <point x="655" y="948" type="line"/>
      <point x="739" y="948" type="line"/>
      <point x="739" y="1479" type="line"/>
      <point x="938" y="998" type="line"/>
      <point x="1034" y="998" type="line"/>
      <point x="1235" y="1479" type="line"/>
      <point x="1235" y="948" type="line"/>
      <point x="1319" y="948" type="line"/>
      <point x="1319" y="1621" type="line"/>
      <point x="1213" y="1621" type="line"/>
      <point x="989" y="1064" type="line"/>
      <point x="760" y="1621" type="line"/>
      <point x="655" y="1621" type="line"/>
    </contour>
    <contour>
      <point x="268" y="948" type="line"/>
      <point x="352" y="948" type="line"/>
      <point x="352" y="1559" type="line"/>
      <point x="532" y="1559" type="line"/>
      <point x="532" y="1621" type="line"/>
      <point x="88" y="1621" type="line"/>
      <point x="88" y="1559" type="line"/>
      <point x="268" y="1559" type="line"/>
    </contour>
  </outline>
</glyph>
<glyph name="Delta" format="1">
  <advance width="1356"/>
  <unicode hex="2206"/>
  <outline>
    <contour>
      <point x="49" y="0" type="line"/>
      <point x="1308" y="0" type="line"/>
      <point x="732" y="1620" type="line"/>
      <point x="613" y="1620" type="line"/>
    </contour>
    <contour>
      <point x="183" y="87" type="line"/>
      <point x="675" y="1549" type="line"/>
      <point x="1178" y="87" type="line"/>
    </contour>
  </outline>
</glyph>
<glyph name="integral" format="1">
  <advance width="1294"/>
  <unicode hex="222B"/>
  <outline>
    <contour>
      <point x="296" y="-538" type="curve" smooth="yes"/>
      <point x="614" y="-538"/>
      <point x="615" y="-265"/>
      <point x="637" y="-52" type="curve" smooth="yes"/>
      <point x="765" y="1172" type="line" smooth="yes"/>
      <point x="778.333" y="1292"/>
      <point x="695.9" y="1577"/>
      <point x="988" y="1577" type="curve" smooth="yes"/>
      <point x="1049" y="1577"/>
      <point x="1100" y="1526"/>
      <point x="1135" y="1476" type="curve"/>
      <point x="1238" y="1532" type="line"/>
      <point x="1186" y="1596"/>
      <point x="1086" y="1657"/>
      <point x="1002" y="1657" type="curve" smooth="yes"/>
      <point x="684" y="1657"/>
      <point x="682" y="1385"/>
      <point x="661" y="1172" type="curve"/>
      <point x="533" y="-52" type="line" smooth="yes"/>
      <point x="528.406" y="-95.6436"/>
      <point x="671.282" y="-457"/>
      <point x="310" y="-457" type="curve" smooth="yes"/>
      <point x="249" y="-457"/>
      <point x="198" y="-406"/>
      <point x="163" y="-357" type="curve"/>
      <point x="60" y="-412" type="line"/>
      <point x="112" y="-476"/>
      <point x="212" y="-538"/>
    </contour>
  </outline>
</glyph>
<glyph name="notequal" format="1">
  <advance width="771"/>
  <unicode hex="2260"/>
  <outline>
    <contour>
      <point x="225" y="-72" type="line"/>
      <point x="362" y="371" type="line"/>
      <point x="685" y="371" type="line"/>
      <point x="685" y="437" type="line"/>
      <point x="382" y="437" type="line"/>
      <point x="453" y="665" type="line"/>
      <point x="685" y="665" type="line"/>
      <point x="685" y="731" type="line"/>
      <point x="473" y="731" type="line"/>
      <point x="605" y="1158" type="line"/>
      <point x="556" y="1177" type="line"/>
      <point x="418" y="731" type="line"/>
      <point x="86" y="731" type="line"/>
      <point x="86" y="665" type="line"/>
      <point x="398" y="665" type="line"/>
      <point x="327" y="437" type="line"/>
      <point x="86" y="437" type="line"/>
      <point x="86" y="371" type="line"/>
      <point x="307" y="371" type="line"/>
      <point x="176" y="-53" type="line"/>
    </contour>
  </outline>
</glyph>
<glyph name="lozenge" format="1">
  <advance width="1756"/>
  <unicode hex="25CA"/>
  <outline>
    <contour>
      <point x="880" y="49" type="line"/>
      <point x="366" y="583" type="line"/>
      <point x="881" y="1119" type="line"/>
      <point x="1395" y="585" type="line"/>
    </contour>
    <contour>
      <point x="880" y="-55" type="line"/>
      <point x="1500" y="585" type="line"/>
      <point x="881" y="1223" type="line"/>
      <point x="261" y="583" type="line"/>
    </contour>
  </outline>
</glyph>
